<?xml version="1.0" standalone="no"?>
<!DOCTYPE svg PUBLIC "-//W3C//DTD SVG 20010904//EN"
 "http://www.w3.org/TR/2001/REC-SVG-20010904/DTD/svg10.dtd">
<svg version="1.0" xmlns="http://www.w3.org/2000/svg"
 width="1280.000000pt" height="698.000000pt" viewBox="0 0 1280.000000 698.000000"
 preserveAspectRatio="xMidYMid meet">

<g transform="translate(0.000000,698.000000) scale(0.100000,-0.100000)"
fill="#000000" stroke="none">
<path d="M7816 6247 c-22 -7 -41 -18 -43 -24 -3 -7 17 -25 43 -40 115 -67 136
-123 55 -148 -16 -5 -21 -4 -16 4 3 6 -4 20 -17 31 l-23 20 28 -10 c33 -12 35
-3 4 25 -12 11 -18 17 -13 13 13 -10 26 -10 26 0 0 8 -53 42 -65 42 -4 0 -1
-7 6 -17 13 -15 12 -15 -9 -4 l-23 12 18 -27 18 -27 -29 18 -29 19 13 -24 c12
-22 12 -24 -3 -12 -13 11 -15 11 -13 -4 1 -9 13 -25 27 -35 20 -16 21 -19 6
-19 -37 0 -95 40 -119 82 -35 63 -77 77 -179 56 -42 -9 -125 -31 -183 -49
l-105 -32 16 -31 c29 -55 109 -170 144 -203 18 -18 30 -33 26 -33 -15 0 -52
26 -76 54 -29 32 -117 160 -124 179 -2 6 -8 9 -12 5 -11 -11 86 -155 139 -207
38 -37 52 -45 94 -49 46 -4 51 -2 85 32 45 45 84 47 139 10 65 -46 127 -150
113 -194 -7 -21 -62 -53 -70 -41 -3 6 -12 8 -19 5 -8 -3 -17 -1 -21 5 -10 17
-81 13 -99 -5 -20 -20 -20 -80 -1 -118 19 -36 19 -36 -4 -36 -49 0 -910 -176
-1216 -248 l-160 -38 2 -79 c2 -43 12 -117 24 -164 35 -141 38 -161 24 -161
-19 0 -67 212 -73 322 -6 118 1 158 34 193 l25 27 107 -7 c107 -7 108 -7 140
20 32 27 39 52 23 83 -5 9 -11 28 -12 42 -2 14 -8 28 -14 32 -6 5 -5 8 2 8 33
0 -30 75 -72 86 -50 12 -106 -2 -157 -41 -39 -30 -59 -39 -87 -38 -59 2 -71 6
-71 21 0 9 -3 13 -6 9 -3 -3 0 -23 6 -44 31 -95 93 -109 192 -43 87 58 148 54
196 -13 l22 -32 -42 -12 c-24 -6 -133 -36 -243 -67 -311 -86 -437 -115 -457
-105 -11 6 -18 21 -18 39 0 78 -45 108 -139 90 -70 -13 -129 -40 -168 -77 -40
-38 -42 -70 -8 -111 14 -17 25 -37 25 -46 0 -51 -282 -135 -451 -136 l-26 0
30 59 c36 73 47 164 24 207 -8 16 -29 43 -47 59 l-32 30 13 -28 c26 -57 -21
-207 -83 -264 -27 -26 -88 -42 -88 -24 0 6 7 11 17 11 19 0 83 47 83 61 0 6
-6 7 -12 3 -8 -4 -10 -3 -5 2 5 5 14 9 20 9 31 0 62 186 38 224 -6 9 -20 12
-40 9 -17 -2 -31 -1 -31 3 0 22 48 112 105 198 70 105 125 217 125 253 0 13
-12 41 -27 63 l-26 39 -12 -35 c-15 -42 -64 -131 -122 -219 -56 -85 -60 -90
-86 -91 -17 0 -19 -2 -6 -7 15 -6 14 -14 -12 -77 -36 -89 -38 -142 -6 -155 19
-8 17 -9 -13 -7 -34 2 -35 4 -38 45 -2 30 5 60 22 99 31 67 31 66 7 53 -14 -7
-22 -7 -27 2 -5 7 -3 8 6 3 8 -5 11 -4 7 2 -12 19 -61 22 -124 7 -69 -16 -113
-10 -113 14 0 20 -7 12 -12 -13 -2 -16 4 -21 37 -26 l40 -6 -40 -1 c-80 -3
-82 23 -10 110 24 29 41 55 39 58 -3 2 -9 -2 -14 -10 -15 -24 -11 -6 6 28 18
37 18 37 38 16 14 -13 16 -13 16 -1 0 16 -41 31 -50 18 -3 -5 -21 -12 -40 -16
-72 -15 -114 -54 -135 -124 -10 -32 -51 -91 -59 -84 -3 4 -6 2 -6 -4 0 -5 -8
-10 -17 -10 -96 1 -153 -5 -153 -14 0 -8 20 -10 60 -7 42 3 56 1 44 -5 -9 -5
-50 -7 -90 -4 l-73 5 -44 -66 c-55 -83 -124 -206 -166 -294 l-32 -67 20 -20
c23 -23 25 -15 -34 -151 -58 -134 -77 -189 -69 -201 4 -7 3 -9 -3 -6 -5 3 -19
-23 -30 -58 -23 -70 -21 -74 32 -93 18 -6 23 -11 12 -11 -10 -1 -32 6 -50 16
-31 15 -31 15 -17 -2 21 -25 89 -55 127 -55 37 0 90 40 79 59 -6 9 -11 8 -20
-4 -11 -15 -95 -39 -105 -29 -4 4 11 9 51 18 40 9 59 46 69 131 11 105 59 170
140 193 23 7 27 10 13 11 -12 1 -28 9 -35 18 -12 15 -12 16 1 8 36 -22 36 -9
0 51 -44 71 -100 179 -100 192 0 5 29 32 65 61 38 30 63 57 59 63 -4 6 -3 8 4
4 6 -3 68 36 139 87 70 51 143 102 161 113 32 18 34 18 43 1 19 -33 128 -163
195 -233 36 -38 58 -58 48 -44 l-19 25 23 -19 c12 -11 22 -20 22 -22 0 -1 -42
-27 -92 -58 -51 -30 -102 -62 -113 -71 l-20 -15 20 7 c11 3 17 3 13 -1 -3 -4
-17 -9 -30 -10 -32 -4 -210 -124 -202 -137 3 -6 -2 -9 -12 -7 -12 2 -23 -6
-29 -19 -5 -13 -13 -23 -18 -23 -4 0 -5 6 -1 13 4 6 -1 4 -11 -5 -17 -16 -17
-18 0 -45 16 -26 15 -26 -18 6 -31 29 -43 34 -78 33 -49 -2 -93 -26 -122 -64
-14 -19 -21 -47 -24 -105 -3 -43 -5 -89 -6 -103 -2 -20 2 -24 18 -22 l20 2
-20 -11 c-11 -6 -32 -23 -47 -37 -37 -34 -112 -33 -186 5 -64 32 -63 33 -91
-87 -56 -238 -81 -465 -81 -726 0 -205 5 -228 67 -288 44 -43 136 -91 158 -82
10 3 15 19 15 43 0 27 -3 34 -10 23 -11 -18 -13 -15 -28 43 -14 55 -16 150 -2
107 7 -22 8 -23 9 -4 1 12 10 33 22 48 17 21 29 26 65 26 89 0 154 -59 154
-141 0 -27 -4 -49 -8 -49 -20 0 -30 -60 -17 -107 7 -27 14 -44 14 -40 1 5 12
-5 26 -21 13 -16 47 -39 75 -51 64 -27 255 -54 330 -45 l55 6 -5 -112 c-3 -61
-2 -114 1 -118 3 -4 11 -33 18 -65 17 -80 56 -163 83 -181 47 -30 74 -30 131
3 64 37 113 40 151 10 61 -48 97 -179 71 -265 -13 -45 -19 -52 -53 -64 -38
-12 -42 -11 -117 29 -43 22 -88 41 -100 41 -29 0 -65 -36 -65 -65 0 -13 -4
-26 -9 -29 -13 -8 -214 32 -331 66 -188 55 -332 119 -453 202 -37 25 -67 45
-67 43 0 -18 71 -190 103 -251 47 -88 126 -163 223 -210 30 -15 52 -31 49 -36
-6 -10 -45 2 -78 25 -29 20 -43 19 -26 -2 12 -14 12 -16 -1 -11 -8 2 -15 12
-15 21 0 8 -22 35 -49 58 -38 34 -46 38 -36 19 7 -14 20 -31 29 -38 9 -8 11
-11 4 -8 -6 4 0 -14 13 -39 14 -25 30 -45 35 -45 6 0 7 6 3 13 -4 7 -3 9 2 4
5 -5 9 -18 10 -30 0 -28 23 -69 33 -62 5 2 15 -3 22 -13 13 -15 12 -16 -3 -3
-10 7 -18 11 -18 8 0 -13 62 -97 71 -97 6 0 8 -4 5 -9 -3 -4 10 -26 30 -47 19
-22 32 -32 27 -24 -11 21 -11 64 1 72 6 4 5 13 -4 25 -12 16 -12 16 0 5 17
-15 22 -82 6 -82 -6 0 -6 -4 1 -11 6 -6 10 -17 7 -23 -10 -29 229 -169 381
-221 90 -31 100 -39 109 -77 l6 -28 -52 21 c-138 54 -199 85 -280 138 l-87 58
46 -53 c59 -70 189 -148 358 -215 51 -20 180 -108 171 -116 -5 -5 -139 53
-258 111 l-113 55 51 -47 c38 -36 89 -65 209 -121 139 -63 368 -149 446 -165
15 -3 32 -17 39 -33 8 -16 16 -31 18 -35 5 -11 -149 39 -270 88 -62 25 -155
68 -208 96 -112 60 -110 57 40 -54 118 -87 168 -119 156 -99 -5 7 -1 9 8 5 9
-3 14 -10 11 -14 -3 -4 1 -8 8 -7 30 1 48 -4 43 -12 -22 -35 319 -201 594
-289 131 -42 360 -96 445 -107 l50 -6 -37 20 c-20 11 -60 43 -90 70 l-53 50
45 -16 c59 -20 235 -21 276 -2 45 22 42 44 -11 81 -42 29 -44 34 -29 45 38 27
57 15 104 -63 53 -89 120 -171 162 -198 29 -18 38 -19 192 -7 88 7 181 17 206
22 25 5 77 14 115 19 149 19 440 108 660 202 77 33 145 64 150 70 6 6 -1 5
-15 -1 -23 -11 -23 -11 -7 3 11 8 25 12 32 10 13 -5 104 45 240 131 79 50 315
227 339 254 20 22 20 22 0 15 -10 -4 -50 -27 -88 -51 -37 -25 -70 -42 -73 -40
-2 3 2 19 11 35 10 20 38 41 85 65 104 53 276 178 335 244 93 102 197 238 186
241 -5 2 -34 -16 -62 -40 -29 -24 -72 -59 -96 -78 l-43 -33 17 39 c102 235
188 577 223 883 l17 156 49 37 c87 66 101 50 64 -72 -16 -53 -18 -73 -9 -89
30 -57 126 7 188 124 12 22 21 37 22 34 1 -12 -40 -219 -59 -299 -23 -97 -93
-304 -122 -361 -37 -73 -10 -39 35 44 133 245 245 569 305 887 29 151 35 206
23 214 -12 7 -147 -170 -184 -243 -31 -60 -33 -73 -16 -134 10 -39 9 -49 -16
-103 -45 -98 -125 -164 -143 -118 -3 9 2 50 11 90 37 155 1 151 -229 -26 -111
-85 -203 -150 -214 -150 -4 0 -18 47 -30 105 -41 191 -26 386 32 417 12 6 49
12 82 12 83 1 119 28 141 102 17 59 15 128 -6 221 -13 57 -54 103 -93 103 -36
0 -81 -35 -116 -88 -40 -63 -61 -71 -107 -40 -36 24 -80 117 -70 145 3 8 1 11
-4 8 -6 -3 -10 -3 -10 2 0 4 -9 60 -20 123 -11 63 -20 123 -20 132 0 11 17 26
43 39 23 12 93 56 156 98 63 42 121 81 130 86 9 6 36 23 61 39 49 32 123 46
135 26 4 -7 11 -54 15 -106 6 -85 9 -97 35 -124 22 -23 38 -30 66 -30 21 0 44
7 52 15 8 8 18 11 22 7 4 -4 5 0 3 8 -2 8 3 14 10 12 8 -1 11 2 8 7 -4 5 0 13
7 18 38 22 36 167 -3 244 -11 21 -20 45 -20 54 0 9 -4 13 -10 10 -5 -3 -10 1
-10 10 0 9 5 13 10 10 6 -3 10 0 10 9 0 8 12 29 28 47 15 18 21 29 13 25 -10
-6 -12 -5 -7 3 4 6 11 9 16 6 4 -2 18 4 31 14 13 10 45 29 70 43 38 19 45 28
38 41 -23 39 -199 -91 -220 -163 -10 -34 -8 -44 25 -117 43 -95 46 -145 13
-194 -28 -42 -64 -61 -101 -54 -49 9 -63 32 -61 102 1 34 -2 60 -6 58 -3 -3
-9 6 -11 20 -3 13 -1 22 3 19 22 -13 6 27 -17 45 -50 39 -85 27 -227 -76 -49
-36 -140 -95 -202 -132 l-113 -68 -6 51 c-8 61 -54 247 -65 261 -4 5 -16 33
-25 60 -10 28 -29 67 -42 87 -28 43 -9 42 20 -1 l20 -29 45 18 c175 70 646
303 784 388 l96 58 -65 145 c-101 226 -286 549 -314 549 -5 0 -24 -9 -42 -20
-18 -11 -37 -20 -43 -20 -5 0 -2 5 7 11 17 9 17 12 2 40 -13 26 -120 163 -201
258 -12 14 -22 38 -23 52 0 31 -49 90 -136 164 -51 43 -73 55 -99 55 -35 0
-44 6 -206 134 -91 72 -117 79 -203 53z m-195 -352 c17 -9 27 -21 23 -27 -5
-7 -3 -8 5 -3 26 16 113 -93 133 -168 10 -39 9 -49 -5 -71 -10 -14 -23 -26
-30 -26 -8 0 -7 4 3 10 10 6 15 24 14 54 -1 37 -9 56 -43 101 -49 65 -89 103
-134 127 -22 12 -26 17 -14 18 10 0 31 -7 48 -15z m-34 -407 c6 -7 21 -31 33
-53 12 -21 60 -90 107 -152 58 -78 83 -119 79 -130 -6 -14 -10 -12 -26 13 -10
16 -36 52 -59 79 -133 166 -203 303 -179 349 10 19 13 15 23 -36 6 -31 16 -62
22 -70z m-2930 26 c-3 -3 -12 -4 -19 -1 -8 3 -5 6 6 6 11 1 17 -2 13 -5z m-52
-14 c-11 -5 -29 -8 -40 -8 -16 0 -15 2 5 8 34 11 60 11 35 0z m3963 -61 c-53
-27 -52 -62 3 -114 22 -22 47 -52 55 -67 16 -32 18 -91 4 -119 -13 -23 -61
-49 -92 -49 -17 1 -12 5 17 15 54 19 66 39 63 104 -2 53 -5 58 -56 108 -38 38
-52 60 -50 75 3 22 60 68 82 68 6 -1 -6 -10 -26 -21z m-3903 -79 c-3 -5 -2
-10 4 -10 6 0 7 -8 4 -17 -4 -11 -8 -13 -11 -5 -2 7 -8 9 -14 6 -6 -4 -5 2 1
15 7 11 14 21 17 21 3 0 2 -4 -1 -10z m3700 -118 c3 -20 13 -53 22 -72 15 -35
15 -35 -5 -17 -11 10 -26 42 -32 70 -7 29 -18 62 -26 74 -22 35 -16 41 11 10
13 -15 27 -44 30 -65z m-1388 62 c-3 -3 -12 -4 -19 -1 -8 3 -5 6 6 6 11 1 17
-2 13 -5z m90 0 c-3 -3 -12 -4 -19 -1 -8 3 -5 6 6 6 11 1 17 -2 13 -5z m1170
0 c-3 -3 -12 -4 -19 -1 -8 3 -5 6 6 6 11 1 17 -2 13 -5z m-77 -23 c-25 -10
-107 -48 -183 -84 l-137 -66 56 -87 c104 -158 139 -283 98 -342 -23 -33 -35
-27 -17 9 10 20 14 46 10 75 -6 53 -80 210 -128 274 -19 25 -38 51 -42 57 -8
13 23 29 263 139 52 24 102 44 110 43 8 0 -5 -8 -30 -18z m-983 -10 c39 -24
48 -61 34 -137 -10 -54 -9 -59 11 -81 l22 -24 -24 9 c-23 9 -25 14 -25 83 0
95 -10 127 -49 150 -17 10 -24 19 -16 19 8 0 29 -9 47 -19z m-2304 -16 c-7
-21 -13 -19 -13 6 0 11 4 18 10 14 5 -3 7 -12 3 -20z m2257 0 c37 -19 42 -36
34 -121 -7 -72 -6 -73 25 -105 l32 -32 97 6 c108 6 239 37 380 90 l93 35 55
-84 c76 -115 117 -208 116 -263 -1 -68 -15 -76 -109 -62 -128 20 -168 -11
-168 -129 1 -81 44 -179 105 -234 75 -68 136 -62 205 19 26 30 55 57 65 60 53
17 120 -70 163 -210 34 -109 70 -282 63 -301 -9 -22 -213 -117 -355 -165 -101
-33 -137 -41 -200 -41 -126 0 -132 4 -106 88 21 69 19 106 -9 147 -13 19 -22
38 -20 41 2 3 1 4 -2 1 -4 -2 -13 2 -20 10 -66 66 -360 -14 -435 -118 -36 -50
-43 -76 -34 -123 6 -35 13 -44 88 -112 23 -21 37 -43 37 -57 0 -32 -58 -78
-137 -110 -69 -27 -243 -75 -274 -75 -10 0 -19 -5 -19 -11 0 -6 -6 -9 -14 -6
-12 5 -162 -14 -231 -28 -11 -3 -38 -7 -60 -11 l-41 -6 -12 148 c-17 209 -51
323 -116 383 -14 13 -24 27 -21 30 4 7 -23 12 -74 12 -34 0 -72 -22 -143 -82
-45 -39 -109 -49 -156 -25 -101 52 -134 263 -55 356 53 64 97 72 208 40 114
-33 169 -10 195 85 17 59 4 152 -45 327 -19 67 -35 125 -35 128 0 4 44 10 98
14 269 19 504 84 548 152 16 23 16 28 1 59 -9 19 -39 51 -66 70 -59 42 -67 61
-48 108 23 53 91 93 202 117 52 12 160 3 195 -15z m-2427 -207 c29 -14 38 -35
10 -23 -64 27 -102 1 -148 -99 -40 -87 -62 -178 -78 -316 l-12 -105 -70 -19
c-39 -10 -122 -20 -186 -23 -112 -5 -116 -5 -144 20 -26 22 -28 27 -17 48 10
20 11 20 7 3 -9 -35 28 -58 99 -62 61 -4 175 9 249 29 36 10 37 11 36 57 -1
26 -3 39 -6 30 -2 -10 -8 -18 -13 -18 -4 0 -14 8 -21 18 -13 15 -12 16 4 3 15
-12 17 -11 18 5 0 11 2 27 4 37 2 11 -1 15 -8 10 -7 -4 -5 2 3 12 14 17 15 16
21 -16 l6 -34 2 31 c0 16 -3 34 -9 40 -6 6 -6 21 -1 39 l9 30 2 -35 c2 -29 4
-24 16 30 34 157 86 263 146 300 39 23 45 24 81 8z m2720 -5 c-7 -2 -19 -2
-25 0 -7 3 -2 5 12 5 14 0 19 -2 13 -5z m-2883 -80 c-1 -5 -6 -18 -13 -29 -11
-20 -13 -20 -27 -6 -13 14 -12 15 3 9 15 -6 22 3 18 26 0 4 4 7 9 7 6 0 10 -3
10 -7z m-540 -109 c0 -2 -9 0 -20 6 -11 6 -20 13 -20 16 0 2 9 0 20 -6 11 -6
20 -13 20 -16z m2388 -51 c-10 -2 -26 -2 -35 0 -10 3 -2 5 17 5 19 0 27 -2 18
-5z m-105 -10 c-13 -2 -33 -2 -45 0 -13 2 -3 4 22 4 25 0 35 -2 23 -4z m-2177
-57 c16 -23 11 -104 -10 -144 -17 -33 -30 -44 -20 -17 13 32 -8 13 -22 -21
-14 -33 -14 -40 0 -69 10 -21 28 -37 47 -44 49 -17 175 -13 269 9 47 11 90 20
95 20 14 0 2 -248 -15 -323 -16 -68 -24 -66 -23 6 2 54 -1 50 -12 -18 -7 -36
-8 -38 -16 -17 -5 14 -13 20 -20 16 -8 -4 -9 -3 -5 5 4 6 11 9 16 6 4 -3 6 4
3 15 -3 11 -9 18 -12 15 -4 -2 -8 2 -8 10 0 8 4 12 9 9 7 -4 13 26 9 49 -3 17
21 5 26 -13 12 -47 21 -12 22 92 1 61 4 115 7 120 6 10 -3 10 -45 2 -17 -4
-28 -11 -24 -17 3 -6 1 -7 -5 -3 -6 3 -41 2 -79 -3 -125 -18 -184 -20 -177 -9
5 8 1 9 -11 4 -21 -8 -58 2 -50 14 6 9 -25 37 -34 30 -3 -3 -7 9 -8 25 -2 29
-2 29 7 5 8 -24 8 -24 9 7 1 17 16 63 35 102 42 88 37 122 -18 112 -5 -1 -4 4
2 12 7 8 9 17 5 20 -12 13 -40 7 -87 -18 -58 -31 -60 -25 -3 10 33 21 51 25
86 22 26 -3 50 -12 57 -21z m2014 4 c-36 -5 -123 -14 -195 -20 -71 -6 -131
-12 -132 -13 -1 -1 2 -49 7 -107 5 -58 14 -174 21 -257 6 -84 16 -153 21 -153
4 0 -1 -9 -13 -21 -11 -11 -18 -27 -15 -34 3 -8 0 -15 -5 -17 -13 -4 -24 -111
-14 -135 5 -10 7 -22 6 -27 -1 -5 3 -12 9 -16 7 -4 13 -19 13 -33 1 -14 5 -23
9 -21 4 2 9 -5 13 -15 9 -30 91 -98 126 -105 44 -9 99 8 148 46 91 70 105 78
135 77 32 -1 29 -3 -14 -13 -14 -3 -54 -28 -87 -55 -34 -27 -78 -55 -99 -61
-48 -16 -110 -5 -151 26 l-33 25 0 -23 c0 -13 13 -124 29 -248 16 -124 27
-228 25 -231 -2 -3 -27 -9 -55 -12 -28 -4 -57 -11 -64 -17 -7 -6 -30 -13 -51
-15 -22 -2 -39 -5 -39 -6 0 -1 -13 -3 -29 -5 -16 -2 -54 -16 -85 -31 -89 -45
-93 -96 -16 -183 51 -58 52 -82 6 -135 -14 -16 -18 -23 -8 -16 9 7 17 11 17 7
0 -13 -63 -44 -78 -38 -11 4 -13 2 -7 -8 6 -10 3 -12 -13 -8 -12 3 -23 1 -25
-6 -2 -7 -36 -11 -98 -10 -118 0 -180 24 -205 78 -17 34 -16 37 9 94 15 33 27
68 27 79 0 33 -37 70 -86 87 -62 21 -188 30 -242 18 -52 -12 -47 -26 -68 203
-20 231 -29 737 -15 965 5 101 9 186 6 188 -5 5 -159 -26 -238 -49 -38 -11
-71 -18 -74 -15 -8 7 1 10 137 45 149 38 273 54 377 49 107 -6 130 -27 97 -90
-16 -31 -26 -37 -18 -10 5 13 4 14 -4 3 -6 -8 -8 -20 -5 -27 2 -6 0 -15 -6
-19 -6 -3 -11 -25 -11 -49 0 -34 6 -48 31 -72 29 -28 34 -29 127 -29 119 0
182 20 246 76 57 50 61 86 16 145 -59 78 -34 122 100 171 130 49 326 80 500
80 100 0 102 0 40 -7z m79 -60 c0 -9 -4 -8 -9 5 -5 11 -9 27 -9 35 0 9 4 8 9
-5 5 -11 9 -27 9 -35z m1578 -1 c-21 -12 -47 -61 -47 -89 0 -39 41 -145 73
-185 17 -22 22 -32 11 -23 -10 9 -22 17 -26 17 -5 1 -8 4 -7 8 0 3 -6 10 -14
15 -23 13 -57 112 -57 167 0 39 5 53 26 75 15 14 34 26 43 26 14 -1 14 -2 -2
-11z m-1570 -41 c-3 -8 -6 -5 -6 6 -1 11 2 17 5 13 3 -3 4 -12 1 -19z m-1777
-13 c0 -7 -30 -13 -34 -7 -3 4 4 9 15 9 10 1 19 0 19 -2z m1797 -57 c-3 -8 -6
-5 -6 6 -1 11 2 17 5 13 3 -3 4 -12 1 -19z m-2317 -112 c0 -2 -7 -7 -16 -10
-8 -3 -12 -2 -9 4 6 10 25 14 25 6z m518 -181 c0 -26 -12 -33 -23 -15 -4 6
-11 7 -17 4 -6 -4 -9 -1 -6 7 3 8 13 13 22 13 9 -1 16 2 16 7 0 5 2 9 4 9 2 0
4 -11 4 -25z m-502 -67 c31 -46 87 -120 123 -165 l66 -82 14 27 c17 33 51 72
64 72 5 0 -5 -13 -23 -30 -17 -16 -29 -34 -25 -40 3 -5 1 -10 -6 -10 -7 0 -9
-3 -6 -7 4 -3 2 -12 -5 -20 -14 -17 -20 -200 -7 -209 5 -3 7 -9 4 -14 -6 -10
11 -44 39 -77 32 -38 69 -39 132 -3 50 29 58 31 80 19 15 -7 28 -27 33 -48 15
-61 22 -250 14 -376 l-8 -120 -6 215 c-4 118 -12 232 -18 253 -13 39 -61 82
-69 59 -2 -6 -10 -12 -18 -12 -9 0 -12 -5 -9 -10 4 -6 3 -10 -2 -9 -18 3 -34
-1 -30 -8 3 -5 -22 -9 -55 -10 -33 0 -57 1 -54 5 11 10 -15 31 -32 25 -11 -3
-13 -2 -5 4 9 6 7 23 -8 65 -10 32 -20 87 -21 124 -2 66 -2 66 -20 44 -10 -12
-18 -19 -18 -15 0 8 -164 -132 -209 -179 -19 -20 -38 -36 -42 -36 -18 0 -218
337 -219 368 0 14 266 282 280 282 4 0 34 -37 66 -82z m561 -15 c-3 -10 -5 -4
-5 12 0 17 2 24 5 18 2 -7 2 -21 0 -30z m-10 -65 c-3 -7 -5 -2 -5 12 0 14 2
19 5 13 2 -7 2 -19 0 -25z m-10 -40 c-3 -8 -6 -5 -6 6 -1 11 2 17 5 13 3 -3 4
-12 1 -19z m-210 -34 c-3 -3 -12 -4 -19 -1 -8 3 -5 6 6 6 11 1 17 -2 13 -5z
m63 -60 c24 -16 48 -24 60 -21 11 3 18 1 14 -4 -10 -17 -69 -9 -109 16 -48 29
-71 31 -100 8 -11 -10 -8 -5 8 10 35 34 65 32 127 -9z m3253 -31 c47 -24 53
-52 29 -140 -19 -69 -20 -79 -6 -105 8 -16 26 -33 40 -38 86 -33 303 25 543
143 128 63 121 61 121 49 0 -24 -337 -172 -443 -194 l-54 -11 24 -116 c35
-170 80 -449 108 -667 27 -206 52 -520 43 -529 -12 -13 -109 -10 -117 3 -9 15
7 92 18 92 7 0 13 28 15 79 2 52 -34 74 -121 73 -150 -2 -329 -89 -379 -184
-25 -48 -18 -84 26 -130 55 -59 53 -80 -12 -117 -59 -34 -68 -30 -68 31 0 103
-90 729 -151 1048 -40 213 -37 203 -57 195 -149 -64 -307 -97 -612 -130 l-55
-6 7 -143 c7 -150 26 -247 60 -306 l20 -35 -21 25 c-44 52 -81 237 -81 408 l0
72 43 0 c115 0 424 56 542 98 160 56 225 105 225 166 0 25 -12 42 -65 92 -57
53 -65 65 -65 97 0 76 133 175 260 196 66 10 144 4 183 -16z m-3126 -425 c-3
-8 -6 -5 -6 6 -1 11 2 17 5 13 3 -3 4 -12 1 -19z m4207 9 c-12 -7 -40 -35 -63
-64 -43 -55 -68 -73 -98 -73 -11 1 -7 6 13 14 17 8 40 26 50 41 44 63 77 95
98 95 l21 -1 -21 -12z m-4197 -199 c-2 -24 -4 -5 -4 42 0 47 2 66 4 43 2 -24
2 -62 0 -85z m1917 -65 c-27 -21 -101 -81 -164 -134 -63 -53 -208 -171 -323
-262 l-207 -167 47 0 c89 1 115 13 239 114 65 54 159 130 208 169 49 40 122
101 163 136 40 35 75 62 77 60 2 -2 7 -38 11 -79 l7 -75 -134 -110 c-73 -61
-150 -124 -171 -139 -21 -16 -36 -30 -34 -32 1 -2 94 10 206 27 179 27 205 29
219 16 10 -8 34 -20 56 -26 51 -14 92 1 182 67 39 28 84 55 101 58 38 8 94
-10 119 -37 19 -22 29 -59 15 -59 -4 0 -82 -13 -172 -29 -193 -35 -494 -82
-704 -111 -141 -19 -504 -60 -530 -60 -7 0 -18 39 -29 101 -15 86 -20 99 -34
93 -44 -19 -141 -33 -186 -27 l-49 6 7 -54 c4 -30 10 -72 13 -95 l5 -41 -128
-6 c-71 -4 -169 -7 -219 -7 l-90 1 -40 46 c-27 33 -34 45 -20 39 30 -11 23 -6
-173 123 -162 107 -213 151 -196 170 2 2 75 -43 161 -101 87 -58 190 -124 229
-147 68 -40 75 -42 140 -39 l68 3 -170 102 c-269 162 -430 275 -426 298 2 11
7 23 10 26 12 11 422 49 522 49 117 -1 193 -23 195 -58 2 -22 1 -22 -16 -3
-36 38 -82 44 -274 37 -99 -4 -207 -11 -240 -14 l-60 -7 50 -36 c92 -65 279
-181 429 -266 l149 -83 -7 42 c-4 26 -15 50 -29 62 -34 28 -57 68 -56 96 1 20
2 21 6 5 11 -43 55 -84 111 -105 47 -18 74 -21 157 -18 90 3 108 6 168 36 75
37 101 73 95 128 -2 18 0 30 5 27 15 -9 1 -92 -18 -113 -13 -15 -16 -30 -13
-65 3 -25 8 -49 11 -52 4 -3 62 38 129 92 241 193 538 438 535 442 -6 5 -261
-26 -392 -48 -215 -36 -319 -73 -342 -121 -7 -13 -12 -17 -12 -10 -3 61 99
104 344 146 169 29 350 50 469 54 l50 2 -50 -37z m-748 -245 l29 -33 -32 29
c-18 17 -33 31 -33 33 0 8 8 1 36 -29z m863 -183 c0 -5 -6 1 -14 15 -8 14 -14
30 -14 35 0 6 6 -1 14 -15 8 -14 14 -29 14 -35z m573 -38 c14 -28 23 -67 26
-118 4 -67 1 -84 -21 -132 -46 -101 -146 -139 -270 -103 -70 20 -92 20 -127
-1 -64 -37 -73 -132 -35 -353 3 -14 -2 -5 -11 20 -20 61 -29 214 -15 266 25
94 76 118 186 89 77 -21 166 -16 204 13 14 10 36 38 49 63 20 39 22 54 19 136
-3 71 -9 100 -26 128 -23 40 -26 49 -11 40 6 -4 20 -25 32 -48z m644 -273
c-120 -26 -239 -98 -268 -162 -15 -34 -17 -35 -17 -11 -1 14 9 41 22 59 40 59
195 128 287 128 42 0 41 0 -24 -14z m-1121 -91 c-3 -10 -9 -30 -12 -45 -6 -31
9 -27 -228 -62 l-160 -24 45 -19 c25 -11 112 -44 194 -73 111 -40 150 -59 156
-74 4 -12 4 -22 1 -24 -8 -3 -231 77 -400 143 -86 33 -99 36 -160 29 -36 -3
-71 -9 -78 -13 -7 -3 32 -24 85 -45 145 -58 418 -160 497 -186 76 -24 109 -46
84 -54 -8 -3 -59 -9 -114 -14 -96 -8 -102 -7 -195 24 -52 18 -198 73 -324 123
-126 50 -231 89 -233 87 -2 -2 12 -78 31 -170 l35 -168 -21 -28 c-28 -39 -18
-67 41 -112 29 -22 51 -48 53 -62 3 -14 1 -23 -3 -20 -5 3 -9 -2 -9 -10 0 -16
-46 -56 -64 -56 -13 0 -75 236 -135 520 -56 264 -61 234 39 242 218 18 678 75
785 97 22 5 53 9 69 10 23 1 27 -2 21 -16z m-1874 -138 c85 -41 139 -45 169
-15 11 11 20 23 20 28 0 4 105 7 233 8 l234 1 17 -91 c9 -50 46 -214 82 -365
36 -150 63 -276 60 -278 -6 -6 -60 23 -75 41 -8 10 -11 28 -7 48 20 107 20
114 -10 136 -16 12 -34 26 -40 31 -6 4 -28 85 -49 179 l-39 171 -47 -34 c-307
-220 -377 -265 -414 -265 -36 0 -26 8 191 163 l228 162 -73 3 -73 3 -121 -89
c-67 -49 -163 -119 -213 -155 l-92 -66 -27 60 c-15 33 -25 62 -23 63 1 2 61
45 132 97 l129 94 -119 7 c-180 11 -204 16 -204 39 0 31 19 59 40 59 10 0 51
-16 91 -35z m-620 -14 c56 -36 85 -65 102 -99 14 -29 14 -33 3 -74 l-8 -26
-66 28 c-55 22 -73 36 -99 75 -18 26 -33 43 -33 38 0 -6 14 -29 31 -53 17 -23
25 -40 17 -38 -7 2 -25 27 -41 55 l-27 51 22 -2 c13 -2 56 -17 97 -35 41 -17
79 -30 85 -28 18 7 -65 78 -118 103 -27 13 -53 21 -58 18 -4 -3 -8 0 -8 5 0
21 57 11 101 -18z m3934 19 c-11 -5 -27 -9 -35 -9 -9 0 -8 4 5 9 11 5 27 9 35
9 9 0 8 -4 -5 -9z m-67 -17 c-10 -2 -26 -2 -35 0 -10 3 -2 5 17 5 19 0 27 -2
18 -5z m-435 -93 c-12 -47 -147 -120 -296 -160 -26 -7 -50 -16 -52 -20 -3 -4
108 -45 245 -91 l250 -84 127 43 c71 24 178 63 238 88 61 24 111 44 112 44 1
0 -8 -20 -20 -45 -20 -41 -29 -48 -107 -81 -47 -20 -148 -59 -224 -86 l-140
-49 -140 42 c-78 23 -234 74 -347 115 l-206 73 -62 -10 c-125 -20 -220 -26
-225 -13 -3 8 32 13 117 18 67 4 140 11 162 16 22 4 78 16 125 25 127 25 290
73 336 100 23 14 54 40 70 59 33 40 44 45 37 16z m-3509 -126 c5 -14 4 -15 -9
-4 -17 14 -19 20 -6 20 5 0 12 -7 15 -16z m-4 -36 c0 -6 -6 -5 -15 2 -8 7 -15
14 -15 16 0 2 7 1 15 -2 8 -4 15 -11 15 -16z m240 -9 c0 -4 17 -18 39 -32 50
-33 180 -73 308 -94 65 -10 103 -21 103 -28 0 -9 -24 -8 -97 5 -215 39 -348
95 -385 163 -8 16 -7 17 11 5 12 -7 21 -16 21 -19z m-165 10 c11 -17 -1 -21
-15 -4 -8 9 -8 15 -2 15 6 0 14 -5 17 -11z m2572 -21 c-3 -8 -6 -5 -6 6 -1 11
2 17 5 13 3 -3 4 -12 1 -19z m-2656 -5 c13 -16 12 -17 -3 -4 -17 13 -22 21
-14 21 2 0 10 -8 17 -17z m73 -9 c10 -25 -1 -29 -14 -5 -6 12 -7 21 -1 21 5 0
12 -7 15 -16z m-9 -66 c-4 -30 -14 -50 -16 -32 -1 5 -2 26 -3 46 -2 28 1 35
10 27 7 -6 11 -24 9 -41z m320 -53 c76 -26 327 -96 352 -97 7 -1 10 -5 7 -9
-3 -5 3 -20 12 -34 9 -14 14 -29 10 -33 -17 -16 -391 96 -523 157 -60 28 -73
39 -91 75 l-20 43 86 -37 c48 -21 123 -50 167 -65z m2245 75 c0 -5 -3 -10 -7
-10 -5 0 -123 -14 -263 -31 -140 -16 -283 -33 -317 -36 -75 -7 -73 0 -37 -150
62 -260 163 -593 217 -715 l25 -56 -51 -7 c-67 -9 -120 -31 -115 -47 4 -12 28
-30 84 -64 16 -10 17 -14 6 -25 -18 -19 -163 -24 -235 -9 -63 13 -82 30 -82
74 0 27 -5 32 -39 44 -22 7 -71 17 -110 22 -54 8 -76 16 -90 33 -32 38 -162
315 -214 457 -27 74 -67 192 -88 261 l-37 125 -271 18 c-149 10 -275 22 -281
27 -11 11 35 9 424 -17 282 -18 301 -29 255 -140 -22 -52 -10 -79 50 -113 172
-96 466 -55 466 66 0 13 -22 44 -55 79 -31 31 -55 64 -53 73 7 36 114 71 278
91 249 30 431 50 475 53 28 2 53 4 58 5 4 1 7 -2 7 -8z m-2495 -30 c10 -11 14
-20 9 -20 -5 0 -15 9 -22 20 -7 11 -11 20 -9 20 2 0 12 -9 22 -20z m2593 -75
c-3 -3 -9 2 -12 12 -6 14 -5 15 5 6 7 -7 10 -15 7 -18z m-2524 -41 c7 -19 2
-18 -19 6 -16 17 -16 20 -3 15 9 -4 19 -13 22 -21z m4182 -19 c-5 -19 -30 -36
-119 -78 -174 -84 -319 -145 -471 -199 -103 -36 -151 -58 -185 -87 -25 -21
-64 -48 -87 -59 -37 -19 -62 -41 -119 -102 -47 -51 -221 -167 -260 -174 -22
-4 -53 -9 -70 -12 -22 -5 5 19 95 82 69 48 204 150 300 227 174 139 176 140
295 182 66 23 184 68 262 99 79 31 149 56 156 56 8 0 31 11 51 25 60 41 151
84 154 74 2 -6 1 -21 -2 -34z m-4195 -13 c-5 -2 -7 -11 -4 -20 6 -15 5 -15
-11 -3 -12 10 -14 16 -5 21 8 6 8 9 0 14 -6 4 -11 12 -11 18 0 6 9 3 21 -8 11
-10 16 -20 10 -22z m268 -62 c64 -22 154 -49 201 -60 47 -12 101 -26 122 -31
28 -7 39 -16 47 -41 6 -17 9 -34 6 -36 -16 -16 -363 90 -497 151 -64 30 -80
42 -97 74 l-20 39 62 -29 c33 -16 113 -46 176 -67z m2381 37 c36 -14 172 -60
302 -103 131 -44 238 -82 238 -85 0 -6 -73 -66 -235 -190 -145 -112 -186 -139
-198 -132 -6 3 -7 1 -4 -4 4 -6 -11 -22 -33 -37 -41 -27 -55 -32 -45 -17 3 5
1 12 -5 16 -23 14 -5 36 78 96 113 82 304 231 300 234 -2 1 -73 26 -158 55
-259 88 -310 110 -310 130 0 10 -7 35 -16 56 -16 38 -16 39 3 22 10 -9 48 -28
83 -41z m-2585 -37 c10 -11 16 -20 13 -20 -3 0 -13 9 -23 20 -10 11 -16 20
-13 20 3 0 13 -9 23 -20z m2525 -119 c-17 -63 -65 -95 -151 -99 -38 -3 -69 0
-69 4 0 5 31 9 70 9 62 1 72 3 99 29 19 18 35 48 43 79 7 28 14 44 16 35 2 -9
-2 -35 -8 -57z m-2025 -97 c51 -23 88 -34 106 -32 36 6 38 -9 4 -18 -18 -4
-50 5 -111 35 -47 22 -90 38 -95 35 -5 -3 -9 0 -9 5 0 18 24 12 105 -25z
m1770 16 c24 -6 16 -8 -35 -9 -84 -1 -124 -24 -141 -81 -7 -22 -14 -38 -17
-35 -3 2 3 25 13 51 28 73 88 98 180 74z m145 -220 c-8 -5 -19 -10 -25 -10 -5
0 -3 5 5 10 8 5 20 10 25 10 6 0 3 -5 -5 -10z m-1826 -15 c25 -11 52 -14 84
-9 44 6 49 4 84 -30 20 -20 33 -36 29 -36 -18 0 -202 60 -228 74 -37 20 -16
20 31 1z m1786 0 c0 -3 -24 -17 -52 -30 -36 -17 -69 -24 -103 -24 l-50 2 60 7
c33 4 78 16 100 28 46 24 45 24 45 17z m1270 -61 c0 -10 -25 -29 -42 -32 -22
-4 -23 2 -2 22 15 15 44 22 44 10z m90 -32 c0 -5 -11 -14 -25 -20 -29 -13 -31
-10 -9 12 17 17 34 21 34 8z m-460 -35 c0 -7 -33 -32 -72 -55 -40 -23 -71 -42
-68 -42 3 0 33 9 68 19 34 11 62 16 62 11 0 -7 -187 -60 -269 -76 -32 -7 -34
-6 -28 17 4 13 7 32 7 42 0 9 5 17 10 17 6 0 10 -13 10 -28 0 -21 5 -28 20
-29 11 -1 18 2 15 7 -3 5 5 14 17 20 22 11 22 10 4 -4 -14 -12 -16 -16 -5 -16
8 0 61 30 119 65 58 35 106 64 108 64 1 1 2 -5 2 -12z m-140 -52 c0 -2 -13
-11 -30 -20 -38 -19 -40 -11 -2 9 31 17 32 18 32 11z m475 -15 c-3 -5 -12 -10
-18 -10 -7 0 -6 4 3 10 19 12 23 12 15 0z m-715 -59 c0 -29 -5 -41 -17 -45
-37 -11 -209 -36 -243 -35 -36 2 -13 7 120 28 l45 7 -70 13 c-148 29 -97 37
93 15 l52 -7 0 32 c0 17 5 31 10 31 6 0 10 -18 10 -39z m530 22 c0 -9 -26 -28
-42 -31 -22 -4 -23 7 -2 23 16 11 44 16 44 8z m-2531 -39 c82 -24 126 -43 66
-28 -60 14 -185 55 -185 61 0 3 8 2 18 -2 9 -3 55 -17 101 -31z m2346 18 c-6
-5 -44 -19 -85 -32 -41 -12 -79 -23 -85 -25 -5 -2 24 -4 65 -4 52 -1 70 -4 60
-11 -8 -5 -61 -10 -117 -10 l-103 0 0 -30 c0 -16 -5 -30 -11 -30 -16 0 -6 62
11 71 11 5 202 61 270 78 2 0 0 -3 -5 -7z m-588 -38 c-3 -3 -12 -4 -19 -1 -8
3 -5 6 6 6 11 1 17 -2 13 -5z m46 -11 c-7 -2 -19 -2 -25 0 -7 3 -2 5 12 5 14
0 19 -2 13 -5z m505 0 c-10 -2 -28 -2 -40 0 -13 2 -5 4 17 4 22 1 32 -1 23 -4z
m-2001 -29 c-3 -3 -12 -4 -19 -1 -8 3 -5 6 6 6 11 1 17 -2 13 -5z m106 -11
c-13 -2 -35 -2 -50 0 -16 2 -5 4 22 4 28 0 40 -2 28 -4z m820 0 c-7 -2 -21 -2
-30 0 -10 3 -4 5 12 5 17 0 24 -2 18 -5z m-735 -10 c-10 -2 -28 -2 -40 0 -13
2 -5 4 17 4 22 1 32 -1 23 -4z m1492 -28 c0 -19 -4 -35 -10 -35 -5 0 -10 11
-10 25 0 29 -5 30 -40 10 -34 -19 -52 -18 -20 1 31 19 15 14 -73 -21 -38 -15
-64 -31 -58 -34 5 -4 -8 -7 -30 -7 -21 -1 -39 0 -39 2 0 3 24 16 53 29 l52 25
-55 -4 c-75 -6 -25 8 95 27 138 22 135 23 135 -18z m-1397 18 c-7 -2 -19 -2
-25 0 -7 3 -2 5 12 5 14 0 19 -2 13 -5z m1458 -92 c21 11 23 11 11 -3 -10 -13
-10 -17 0 -21 7 -3 3 -6 -9 -6 -13 -1 -23 -4 -23 -9 0 -4 -15 -12 -33 -18 -26
-7 -36 -7 -46 3 -9 10 -9 13 1 13 9 0 9 3 -2 10 -12 8 -9 10 11 10 15 0 32 7
39 15 10 12 15 13 20 4 6 -8 14 -8 31 2z"/>
<path d="M7039 4727 c-182 -94 -219 -327 -78 -482 73 -79 142 -110 244 -109
66 0 89 4 130 26 109 56 165 146 165 264 0 103 -22 157 -94 230 -108 109 -243
135 -367 71z"/>
<path d="M4092 4625 c-17 -37 -14 -45 4 -12 9 16 14 31 11 33 -2 2 -9 -7 -15
-21z"/>
<path d="M5249 4141 c-34 -77 -29 -74 -91 -54 -15 4 -14 -6 7 -101 29 -137 21
-147 -51 -69 l-43 48 -12 -34 -12 -33 -53 6 c-30 3 -54 4 -54 1 0 -3 8 -33 17
-66 17 -61 17 -61 -6 -78 l-23 -17 96 -75 c92 -71 96 -76 96 -113 0 -43 -10
-42 117 -13 35 9 65 12 68 7 3 -4 8 -53 11 -109 6 -89 9 -101 26 -101 20 0 20
-7 -3 144 -4 32 -6 63 -3 67 3 5 47 9 99 9 l93 0 -5 39 c-5 38 -3 42 86 134
l91 94 -26 12 c-25 11 -26 13 -19 81 4 39 5 70 4 70 -2 0 -22 -7 -44 -15 -57
-20 -70 -18 -84 12 l-12 26 -40 -56 c-54 -77 -74 -76 -65 1 4 31 10 84 13 116
l6 60 -30 -22 c-32 -22 -53 -28 -53 -14 0 4 -16 32 -34 61 l-34 55 -33 -73z"/>
<path d="M3820 4182 c-22 -7 -60 -44 -76 -74 -13 -26 -13 -27 19 -33 17 -4 46
-16 63 -26 17 -10 35 -15 39 -11 5 4 5 2 1 -5 -3 -6 -1 -15 4 -18 6 -4 24 -25
40 -46 l28 -39 5 33 c10 66 -20 176 -55 204 -17 14 -50 21 -68 15z"/>
<path d="M3706 3983 c-4 -31 -3 -59 1 -62 4 -3 8 -25 9 -48 0 -29 9 -52 27
-76 51 -67 119 -52 162 37 l27 55 -23 33 c-53 77 -111 118 -167 118 -28 0 -30
-2 -36 -57z"/>
<path d="M5000 6214 c-14 -8 -17 -13 -7 -10 10 3 25 6 33 6 8 0 14 5 14 10 0
14 -10 12 -40 -6z"/>
<path d="M5142 6157 c-58 -81 -93 -107 -145 -107 -61 0 -149 -83 -161 -152 -6
-33 2 -34 54 -8 22 11 47 22 57 24 10 1 35 10 55 20 21 9 50 16 66 16 37 0 72
28 121 94 63 86 65 90 42 141 -11 25 -24 45 -28 45 -5 0 -32 -33 -61 -73z"/>
<path d="M6654 6086 c-3 -14 -1 -33 5 -43 8 -15 10 -10 11 25 0 47 -6 55 -16
18z"/>
<path d="M4753 6039 c-23 -17 -50 -43 -60 -59 -18 -31 -33 -39 -33 -19 0 8 -4
9 -13 0 -8 -6 -16 -9 -19 -6 -2 3 -19 -13 -37 -35 -23 -28 -30 -46 -26 -61 4
-11 1 -27 -7 -36 -11 -15 -11 -16 5 -10 10 4 37 10 60 14 28 4 56 19 86 45 24
21 47 38 52 38 4 0 22 19 41 42 22 28 27 40 15 35 -10 -4 -17 -2 -17 5 0 6
-10 2 -23 -10 -41 -39 -42 -23 -2 18 21 22 34 40 27 40 -6 0 -9 7 -6 15 8 19
7 19 -43 -16z"/>
<path d="M4585 5997 c-99 -60 -119 -77 -181 -148 -44 -49 -64 -80 -64 -98 0
-43 -43 -96 -98 -119 -37 -16 -58 -35 -90 -81 -56 -79 -55 -85 10 -77 29 4 53
8 53 9 1 1 43 61 95 132 104 144 184 246 273 348 32 37 57 67 56 66 -2 0 -26
-15 -54 -32z"/>
<path d="M6335 6019 c-5 -7 -4 -10 2 -6 6 4 14 0 17 -9 9 -23 8 -27 -9 -20
-12 4 -14 0 -9 -22 10 -41 20 -47 50 -28 l26 18 -28 31 c-16 18 -32 36 -35 40
-4 5 -10 3 -14 -4z m50 -49 c3 -5 1 -10 -5 -10 -6 0 -8 -6 -4 -12 4 -7 3 -9
-1 -5 -12 10 -15 37 -5 37 5 0 12 -4 15 -10z"/>
<path d="M6769 5747 c-49 -25 -89 -89 -89 -140 0 -105 145 -212 263 -193 104
17 162 75 161 162 -1 56 -17 88 -63 132 -68 65 -190 82 -272 39z m201 -20 c72
-33 104 -82 105 -158 0 -44 -4 -53 -35 -80 -19 -17 -45 -35 -58 -40 -28 -11
-130 -10 -138 2 -3 5 -14 9 -25 9 -10 0 -19 5 -19 10 0 6 -6 10 -13 10 -16 0
-38 26 -60 71 -35 75 2 162 83 192 27 10 124 0 160 -16z"/>
<path d="M6914 5695 c-3 -8 -4 -20 -2 -27 3 -7 7 -1 10 15 6 29 1 36 -8 12z"/>
<path d="M6934 5670 c-28 -43 -44 -49 -64 -25 -9 11 -17 12 -31 4 -13 -6 -25
-6 -39 1 -11 6 -20 8 -20 6 0 -3 12 -12 28 -20 15 -8 21 -15 14 -16 -7 0 -11
-4 -7 -9 3 -5 -2 -11 -11 -13 -10 -2 -5 -7 16 -15 25 -10 29 -9 21 1 -6 7 -8
16 -4 19 12 13 21 7 27 -16 5 -23 10 -24 57 -18 14 2 19 34 7 49 -11 13 -9 14
12 7 14 -4 22 -4 17 1 -4 4 3 19 15 32 24 26 8 22 -26 -7 -18 -15 -18 -13 2
22 28 49 19 48 -14 -3z"/>
<path d="M6830 5680 c6 -11 13 -20 16 -20 2 0 0 9 -6 20 -6 11 -13 20 -16 20
-2 0 0 -9 6 -20z"/>
<path d="M6858 5680 c10 -26 37 -48 47 -38 4 3 0 19 -9 35 -9 16 -15 21 -16
13 0 -9 5 -21 12 -28 9 -9 9 -12 0 -12 -7 0 -12 4 -12 8 0 5 -7 17 -15 28 -14
18 -15 18 -7 -6z"/>
<path d="M6800 5676 c0 -2 8 -10 18 -17 15 -13 16 -12 3 4 -13 16 -21 21 -21
13z"/>
<path d="M6970 5640 c-8 -5 -10 -10 -5 -10 6 0 17 5 25 10 8 5 11 10 5 10 -5
0 -17 -5 -25 -10z"/>
<path d="M6778 5623 c7 -3 16 -2 19 1 4 3 -2 6 -13 5 -11 0 -14 -3 -6 -6z"/>
<path d="M6956 5611 c-4 -5 -3 -18 1 -29 6 -14 13 -17 28 -11 l20 8 -20 2
c-12 1 -6 5 15 9 l35 7 -40 3 c-35 2 -37 3 -15 10 23 7 23 8 3 9 -12 1 -24 -3
-27 -8z"/>
<path d="M6800 5572 l25 -8 -23 -8 c-13 -4 -22 -10 -19 -12 2 -3 17 0 33 6
l29 11 -25 -27 c-25 -27 -11 -25 24 5 18 15 18 15 6 -9 -12 -23 -12 -24 4 -11
9 8 16 21 14 29 -3 15 -9 18 -63 27 -26 4 -27 4 -5 -3z"/>
<path d="M6936 5563 c-10 -10 -7 -25 3 -18 5 3 13 0 17 -6 4 -8 3 -9 -4 -5
-18 11 -14 -9 3 -24 13 -11 14 -10 9 4 -7 19 6 21 26 4 8 -7 6 -3 -4 10 -21
24 -16 28 17 11 18 -9 20 -9 10 1 -7 7 -20 14 -30 15 -10 0 -23 4 -29 8 -6 3
-14 4 -18 0z"/>
<path d="M6907 5554 c-4 -4 -6 -23 -6 -43 2 -34 2 -34 6 -6 l5 30 14 -25 15
-25 -7 25 c-9 36 -19 52 -27 44z"/>
<path d="M6877 5536 c-4 -10 -7 -25 -6 -34 0 -11 4 -9 10 7 5 13 8 29 6 35 -2
5 -6 2 -10 -8z"/>
<path d="M4241 5299 c-31 -12 -108 -75 -120 -97 -8 -15 -3 -17 42 -18 65 -1
116 -7 114 -14 -1 -3 16 -25 39 -48 l41 -42 12 27 c7 16 15 54 18 85 5 53 4
59 -25 87 -32 33 -73 39 -121 20z"/>
<path d="M4108 5152 c-21 -3 -30 -13 -48 -54 -12 -28 -24 -74 -27 -102 -5 -46
-2 -55 22 -84 21 -25 35 -32 61 -32 68 0 150 53 195 126 l21 35 -30 37 c-16
20 -37 36 -46 36 -9 -1 -14 2 -11 6 3 5 1 11 -5 15 -15 9 -101 21 -132 17z
m113 -215 c-10 -9 -11 -8 -5 6 3 10 9 15 12 12 3 -3 0 -11 -7 -18z"/>
<path d="M9180 4060 c0 -6 11 -32 25 -58 13 -26 29 -60 36 -77 16 -43 24 -12
9 36 -7 21 -17 36 -21 33 -5 -3 -9 2 -9 10 0 21 -21 66 -32 66 -4 0 -8 -5 -8
-10z"/>
<path d="M9168 4015 c-4 -20 61 -165 75 -165 15 0 4 38 -32 110 -28 54 -40 69
-43 55z"/>
<path d="M9150 3955 c0 -9 7 -30 16 -47 22 -43 38 -16 16 29 -17 35 -32 43
-32 18z"/>
<path d="M9197 3876 c-4 -9 1 -32 10 -51 13 -28 19 -32 25 -20 6 9 2 28 -10
51 -15 29 -20 33 -25 20z"/>
<path d="M8798 3708 c-16 -74 -23 -127 -17 -132 5 -5 11 -7 14 -4 9 9 54 241
49 250 -13 21 -22 -1 -46 -114z"/>
<path d="M8850 3752 c-7 -31 -18 -86 -25 -122 -7 -35 -11 -68 -9 -72 12 -19
22 -4 33 50 40 196 39 191 25 196 -9 3 -16 -12 -24 -52z"/>
<path d="M9036 3773 c-48 -52 -69 -126 -70 -248 -1 -95 2 -116 22 -156 37 -75
83 -82 135 -19 42 50 62 130 62 250 0 94 -3 110 -25 150 -22 39 -30 45 -62 48
-29 3 -41 -2 -62 -25z"/>
<path d="M8895 3768 c-29 -130 -44 -223 -36 -231 5 -5 11 -5 14 0 7 12 47 210
47 234 0 26 -19 24 -25 -3z"/>
<path d="M9240 3556 c0 -13 -3 -39 -6 -57 -4 -19 -3 -31 1 -27 4 4 14 0 23 -8
8 -8 18 -12 22 -7 12 13 21 105 10 98 -6 -3 -10 -1 -10 5 0 6 -4 8 -10 5 -5
-3 -10 -1 -10 4 0 6 -4 11 -10 11 -5 0 -10 -11 -10 -24z m17 -53 c-3 -10 -5
-4 -5 12 0 17 2 24 5 18 2 -7 2 -21 0 -30z m20 -10 c-3 -10 -5 -4 -5 12 0 17
2 24 5 18 2 -7 2 -21 0 -30z"/>
<path d="M9213 3395 c-5 -31 -6 -58 -2 -61 4 -2 10 6 12 18 4 19 5 18 7 -7 2
-30 2 -30 10 -5 8 25 8 25 10 -5 2 -29 2 -30 9 -5 13 43 23 105 16 98 -4 -4
-14 -1 -22 7 -23 24 -29 18 -40 -40z m24 -7 c-3 -7 -5 -2 -5 12 0 14 2 19 5
13 2 -7 2 -19 0 -25z"/>
<path d="M8886 3284 c-3 -8 12 -48 36 -91 35 -64 42 -73 51 -57 8 14 2 34 -29
91 -21 40 -42 73 -45 73 -4 0 -10 -7 -13 -16z"/>
<path d="M8855 3230 c-8 -25 23 -73 42 -66 10 4 13 1 8 -14 -3 -10 1 -33 11
-51 15 -30 17 -31 27 -14 8 15 2 34 -29 92 -21 40 -42 73 -46 73 -4 0 -9 -9
-13 -20z"/>
<path d="M8825 3180 c-4 -13 7 -43 35 -90 40 -66 60 -80 60 -42 0 15 -76 152
-85 152 -2 0 -6 -9 -10 -20z"/>
<path d="M3854 2775 c-38 -59 18 -231 97 -298 55 -47 76 -51 106 -20 23 22 25
30 20 81 -8 74 -56 169 -112 221 -52 48 -87 53 -111 16z m113 -37 c52 -50 87
-131 88 -200 0 -64 -12 -81 -54 -73 -36 6 -78 52 -113 122 -40 83 -48 143 -20
171 27 27 57 21 99 -20z"/>
<path d="M3910 2680 c-6 -11 -8 -26 -4 -32 5 -8 2 -9 -9 -5 -10 3 -17 4 -17 1
0 -2 12 -9 26 -15 26 -9 26 -10 8 -30 -17 -19 -17 -20 0 -13 16 6 17 3 11 -17
-5 -18 -4 -21 4 -9 9 13 11 13 11 -1 0 -11 8 -15 24 -14 35 4 45 12 43 35 -1
23 -27 28 -27 5 0 -9 -6 -12 -16 -8 -13 5 -13 7 -2 14 7 5 13 17 13 27 0 10 7
27 15 38 11 15 11 16 0 7 -16 -14 -31 -17 -29 -5 3 19 -3 46 -8 34 -4 -9 -8
-10 -18 -2 -10 9 -16 6 -25 -10z"/>
<path d="M3988 2633 c7 -3 16 -2 19 1 4 3 -2 6 -13 5 -11 0 -14 -3 -6 -6z"/>
<path d="M3888 2613 c6 -2 18 -2 25 0 6 3 1 5 -13 5 -14 0 -19 -2 -12 -5z"/>
<path d="M3988 2613 c7 -3 16 -2 19 1 4 3 -2 6 -13 5 -11 0 -14 -3 -6 -6z"/>
<path d="M8958 2506 c-13 -18 -15 -26 -5 -29 7 -3 5 -6 -5 -6 -24 -1 -56 -50
-39 -60 10 -6 9 -16 -3 -45 -8 -20 -13 -43 -10 -51 7 -18 -7 -20 -25 -2 -10
10 -12 6 -9 -18 2 -20 -1 -29 -10 -28 -14 3 -16 -13 -3 -21 5 -3 11 1 15 9 3
8 12 15 21 15 8 0 15 5 15 10 0 6 6 10 14 10 8 0 28 11 43 24 27 24 27 25 9
39 -12 9 -16 19 -11 27 6 10 11 9 21 -5 12 -17 14 -16 25 11 7 16 13 54 13 84
1 48 -2 55 -19 57 -12 2 -27 -7 -37 -21z"/>
<path d="M9025 2419 c-4 -6 -5 -12 -2 -15 2 -3 7 2 10 11 7 17 1 20 -8 4z"/>
<path d="M8880 2365 c0 -8 2 -15 4 -15 2 0 6 7 10 15 3 8 1 15 -4 15 -6 0 -10
-7 -10 -15z"/>
<path d="M8990 2336 c-15 -39 -12 -46 6 -13 9 16 13 31 10 34 -3 3 -10 -6 -16
-21z"/>
<path d="M8940 2285 c-7 -9 -15 -14 -17 -11 -2 2 -18 -9 -36 -25 -34 -31 -52
-36 -60 -16 -3 6 -6 0 -6 -15 -1 -30 8 -34 42 -17 21 10 22 10 2 -5 -48 -36
-49 -39 -29 -47 10 -3 22 -5 27 -2 4 2 7 2 7 -1 0 -2 -13 -11 -28 -19 -23 -11
-30 -11 -40 -1 -7 7 -12 19 -12 26 0 8 -3 9 -11 1 -13 -13 8 -53 28 -53 16 0
63 21 64 29 4 30 10 46 27 65 11 11 18 26 15 33 -2 6 5 17 16 23 23 12 28 1 9
-19 -10 -11 -10 -12 -1 -7 7 4 18 16 24 28 8 16 8 19 -1 13 -9 -5 -10 -1 -5
14 8 25 2 27 -15 6z"/>
<path d="M8780 2210 c-6 -11 -9 -26 -7 -33 3 -7 10 1 16 17 14 35 7 47 -9 16z"/>
<path d="M8900 2185 c-7 -9 -11 -18 -8 -20 3 -3 11 1 18 10 7 9 11 18 8 20 -3
3 -11 -1 -18 -10z"/>
</g>
</svg>
